<svg width="330" height="100" viewBox="0 0 330 100" fill="none" xmlns="http://www.w3.org/2000/svg">
<rect width="330" height="100" rx="10" fill="url(#paint0_linear_391_1381)"/>
<path d="M119.616 42.168H122.616V45.384C122.616 49.248 124.224 53.16 127.608 54.816L125.808 57.192C123.576 56.04 122.016 53.904 121.128 51.312C120.192 54.096 118.512 56.4 116.112 57.6L114.336 55.176C117.912 53.496 119.616 49.392 119.616 45.384V42.168ZM128.568 62.04V40.512H131.568V48.816H134.712V51.312H131.568V62.04H128.568ZM136.633 42.072H148.345V44.424H144.049V44.76C144.049 47.352 145.681 49.968 149.137 51.072L147.625 53.376C145.225 52.608 143.545 51.072 142.585 49.104C141.625 51.24 139.897 52.944 137.377 53.784L135.865 51.432C139.417 50.28 141.001 47.496 141.001 44.76V44.424H136.633V42.072ZM139.321 61.632V54.672H142.273V59.232H154.129V61.632H139.321ZM150.601 56.064V40.512H153.577V56.064H150.601ZM177.276 40.464H180.276V62.064H177.276V50.424H173.436V48.024H177.276V40.464ZM161.964 55.68C165.492 53.976 167.244 49.896 167.244 45.888V44.976H162.804V42.576H174.732V44.976H170.268V45.888C170.268 49.68 172.044 53.64 175.596 55.248L173.892 57.6C171.444 56.424 169.764 54.168 168.828 51.408C167.892 54.36 166.188 56.784 163.716 58.032L161.964 55.68ZM183.709 41.952H195.325V44.352H191.077C191.101 46.872 192.589 49.296 195.973 50.304L194.557 52.656C192.181 51.936 190.573 50.496 189.637 48.648C188.677 50.808 186.973 52.536 184.429 53.376L182.941 51.024C186.445 49.872 188.029 47.088 188.053 44.352H183.709V41.952ZM185.845 57.84C185.845 55.248 188.629 53.688 193.093 53.688C197.557 53.688 200.365 55.248 200.365 57.84C200.365 60.456 197.557 62.04 193.093 62.04C188.629 62.04 185.845 60.456 185.845 57.84ZM188.797 57.84C188.797 59.088 190.333 59.712 193.093 59.712C195.901 59.712 197.413 59.088 197.413 57.84C197.413 56.592 195.901 56.016 193.093 56.016C190.333 56.016 188.797 56.592 188.797 57.84ZM197.125 53.28V40.512H200.125V45.504H203.005V47.952H200.125V53.28H197.125ZM218.054 40.512H221.006V48.96H224.15V51.432H221.006V62.04H218.054V40.512ZM204.086 46.104V43.728H208.862V40.848H211.886V43.728H216.614V46.104H204.086ZM204.974 52.464C204.974 49.464 207.278 47.352 210.374 47.352C213.494 47.352 215.822 49.464 215.822 52.464C215.822 55.464 213.494 57.576 210.374 57.576C207.278 57.576 204.974 55.464 204.974 52.464ZM207.806 52.464C207.806 54.12 208.91 55.152 210.374 55.152C211.886 55.152 212.99 54.12 212.99 52.464C212.99 50.808 211.886 49.776 210.374 49.776C208.91 49.776 207.806 50.808 207.806 52.464ZM240.11 40.488H243.086V62.016H240.11V40.488ZM225.278 55.992C230.774 53.352 233.198 49.896 233.654 45.12H226.382V42.72H236.702C236.702 49.296 234.422 54.672 226.838 58.344L225.278 55.992Z" fill="white"/>
<path d="M79 56.5L69.625 47.125L72.25 44.4062L77.125 49.2812V34H80.875V49.2812L85.75 44.4062L88.375 47.125L79 56.5ZM67.75 64C66.7188 64 65.8356 63.6325 65.1006 62.8975C64.3656 62.1625 63.9988 61.28 64 60.25V54.625H67.75V60.25H90.25V54.625H94V60.25C94 61.2812 93.6325 62.1644 92.8975 62.8994C92.1625 63.6344 91.28 64.0012 90.25 64H67.75Z" fill="white"/>
<defs>
<linearGradient id="paint0_linear_391_1381" x1="165" y1="0" x2="165" y2="100" gradientUnits="userSpaceOnUse">
<stop stop-color="#3690FE"/>
<stop offset="1" stop-color="#464AE1"/>
</linearGradient>
</defs>
</svg>
